<?xml version="1.0" standalone="no"?>
<!DOCTYPE svg PUBLIC "-//W3C//DTD SVG 20010904//EN"
 "http://www.w3.org/TR/2001/REC-SVG-20010904/DTD/svg10.dtd">
<svg version="1.0" xmlns="http://www.w3.org/2000/svg"
 width="96.000000pt" height="96.000000pt" viewBox="0 0 96.000000 96.000000"
 preserveAspectRatio="xMidYMid meet">
<metadata>
Created by potrace 1.14, written by Peter Selinger 2001-2017
</metadata>
<g transform="translate(0.000000,96.000000) scale(0.100000,-0.100000)"
fill="#000000" stroke="none">
<path d="M310 844 c-56 -17 -112 -62 -133 -107 -16 -33 -19 -68 -32 -430 -5
-116 -3 -162 6 -173 18 -22 491 -21 509 1 11 13 8 44 -19 178 -17 89 -34 170
-36 180 -2 11 3 30 12 44 16 24 20 25 99 21 76 -3 85 -6 113 -32 l31 -30 0 88
c0 79 -2 89 -25 111 -20 21 -34 25 -86 25 -61 0 -64 1 -120 50 -79 69 -128 90
-209 89 -36 -1 -85 -7 -110 -15z"/>
</g>
</svg>
